<svg aria-hidden="true" style="position: absolute; width: 0; height: 0; overflow: hidden;" version="1.1" xmlns="http://www.w3.org/2000/svg" xmlns:xlink="http://www.w3.org/1999/xlink">
<defs>
<symbol id="icon-twitter" viewBox="0 0 32 32">
<title>twitter</title>
<path d="M21.74 13.487c0.020 0.081 0.030 0.213 0.030 0.395 0 1.459-0.355 2.868-1.064 4.226-0.73 1.439-1.753 2.584-3.071 3.436-1.439 0.953-3.091 1.429-4.956 1.429-1.784 0-3.416-0.476-4.895-1.429 0.223 0.020 0.476 0.030 0.76 0.030 1.48 0 2.807-0.456 3.983-1.368-0.709 0-1.338-0.203-1.885-0.608-0.527-0.426-0.892-0.953-1.095-1.581 0.203 0.020 0.395 0.030 0.578 0.030 0.284 0 0.568-0.030 0.851-0.091-0.73-0.162-1.338-0.537-1.824-1.125s-0.73-1.257-0.73-2.007v-0.061c0.446 0.264 0.922 0.405 1.429 0.426-0.426-0.304-0.77-0.689-1.034-1.155s-0.395-0.973-0.395-1.52c0-0.568 0.152-1.105 0.456-1.611 0.791 0.993 1.753 1.784 2.889 2.372 1.155 0.588 2.382 0.912 3.679 0.973-0.041-0.243-0.061-0.486-0.061-0.73 0-0.568 0.142-1.095 0.426-1.581 0.284-0.507 0.669-0.902 1.155-1.186s1.014-0.426 1.581-0.426c0.466 0 0.892 0.091 1.277 0.274 0.405 0.182 0.76 0.426 1.064 0.73 0.73-0.142 1.409-0.395 2.037-0.76-0.243 0.75-0.709 1.338-1.399 1.763 0.608-0.081 1.216-0.253 1.824-0.517-0.446 0.649-0.983 1.206-1.611 1.672z"></path>
<path fill="none" stroke="#a9a9a9" style="stroke: var(--color1, #a9a9a9)" stroke-linejoin="miter" stroke-linecap="butt" stroke-miterlimit="4" stroke-width="0.8649" d="M16 31.135c8.359 0 15.135-6.776 15.135-15.135s-6.776-15.135-15.135-15.135c-8.359 0-15.135 6.776-15.135 15.135s6.776 15.135 15.135 15.135z"></path>
</symbol>
<symbol id="icon-facebook" viewBox="0 0 32 32">
<title>facebook</title>
<path d="M13.895 24.432v-6.963h-2.341v-2.767h2.341v-2.189c0-1.155 0.324-2.047 0.973-2.676 0.649-0.649 1.51-0.973 2.584-0.973 0.872 0 1.581 0.041 2.128 0.122v2.463h-1.459c-0.547 0-0.922 0.122-1.125 0.365-0.162 0.203-0.243 0.527-0.243 0.973v1.915h2.584l-0.365 2.767h-2.22v6.963h-2.858z"></path>
<path fill="none" stroke="#a9a9a9" style="stroke: var(--color1, #a9a9a9)" stroke-linejoin="miter" stroke-linecap="butt" stroke-miterlimit="4" stroke-width="0.8649" d="M16 31.135c8.359 0 15.135-6.776 15.135-15.135s-6.776-15.135-15.135-15.135c-8.359 0-15.135 6.776-15.135 15.135s6.776 15.135 15.135 15.135z"></path>
</symbol>
<symbol id="icon-googlep" viewBox="0 0 32 32">
<title>googlep</title>
<path d="M17.574 15.797c0.061 0.345 0.091 0.669 0.091 0.973 0 1.115-0.233 2.108-0.699 2.98-0.466 0.851-1.125 1.52-1.976 2.007s-1.824 0.73-2.919 0.73c-1.054 0-2.037-0.264-2.949-0.791-0.892-0.527-1.601-1.236-2.128-2.128-0.507-0.892-0.76-1.865-0.76-2.919s0.253-2.027 0.76-2.919c0.527-0.892 1.236-1.601 2.128-2.128 0.912-0.527 1.895-0.791 2.949-0.791 1.52 0 2.818 0.507 3.892 1.52l-1.581 1.52c-0.608-0.588-1.378-0.882-2.311-0.882-0.649 0-1.257 0.162-1.824 0.486-0.547 0.324-0.983 0.77-1.308 1.338s-0.486 1.186-0.486 1.855 0.162 1.287 0.486 1.855c0.324 0.568 0.76 1.014 1.308 1.338 0.568 0.324 1.176 0.486 1.824 0.486 0.709 0 1.328-0.152 1.855-0.456 0.426-0.243 0.77-0.588 1.034-1.034 0.223-0.345 0.365-0.679 0.426-1.003h-3.314v-2.037h5.503zM23.199 16.010v-1.703h-1.703v1.703h-1.672v1.703h1.672v1.703h1.703v-1.703h1.703v-1.703h-1.703z"></path>
<path fill="none" stroke="#a9a9a9" style="stroke: var(--color1, #a9a9a9)" stroke-linejoin="miter" stroke-linecap="butt" stroke-miterlimit="4" stroke-width="0.8649" d="M16 31.135c8.359 0 15.135-6.776 15.135-15.135s-6.776-15.135-15.135-15.135c-8.359 0-15.135 6.776-15.135 15.135s6.776 15.135 15.135 15.135z"></path>
</symbol>
<symbol id="icon-instagram" viewBox="0 0 32 32">
<title>instagram</title>
<path d="M15.568 13.152c-0.628 0-1.216 0.162-1.764 0.486-0.527 0.304-0.953 0.73-1.277 1.277-0.304 0.527-0.456 1.105-0.456 1.733s0.152 1.216 0.456 1.764c0.324 0.527 0.75 0.953 1.277 1.277 0.547 0.304 1.135 0.456 1.764 0.456s1.206-0.152 1.733-0.456c0.547-0.324 0.973-0.75 1.277-1.277 0.324-0.547 0.486-1.135 0.486-1.764s-0.162-1.206-0.486-1.733c-0.304-0.547-0.73-0.973-1.277-1.277-0.527-0.324-1.105-0.486-1.733-0.486zM15.568 18.929c-0.628 0-1.166-0.223-1.611-0.669s-0.669-0.983-0.669-1.611c0-0.628 0.223-1.166 0.669-1.611s0.983-0.669 1.611-0.669c0.628 0 1.166 0.223 1.612 0.669s0.669 0.983 0.669 1.611c0 0.628-0.223 1.166-0.669 1.611s-0.983 0.669-1.611 0.669zM20.037 13c-0.020 0.223-0.111 0.416-0.274 0.578-0.142 0.162-0.324 0.243-0.547 0.243s-0.416-0.081-0.578-0.243-0.243-0.355-0.243-0.578c0-0.223 0.081-0.415 0.243-0.578s0.355-0.243 0.578-0.243c0.223 0 0.415 0.081 0.578 0.243s0.243 0.355 0.243 0.578zM22.348 13.821c-0.040-0.588-0.132-1.095-0.274-1.52-0.182-0.507-0.466-0.943-0.851-1.307-0.365-0.385-0.801-0.669-1.308-0.851-0.426-0.142-0.932-0.223-1.52-0.243-0.568-0.041-1.51-0.061-2.828-0.061s-2.27 0.020-2.858 0.061c-0.568 0.020-1.064 0.101-1.49 0.243-0.507 0.182-0.953 0.466-1.338 0.851-0.365 0.365-0.639 0.801-0.821 1.308-0.142 0.426-0.233 0.932-0.274 1.52-0.020 0.568-0.030 1.51-0.030 2.828s0.010 2.27 0.030 2.858c0.040 0.568 0.132 1.064 0.274 1.49 0.182 0.507 0.456 0.953 0.821 1.338 0.385 0.365 0.831 0.628 1.338 0.791 0.426 0.162 0.922 0.253 1.49 0.274 0.588 0.041 1.541 0.061 2.858 0.061s2.26-0.020 2.828-0.061c0.588-0.020 1.095-0.101 1.52-0.243 0.507-0.182 0.943-0.456 1.308-0.821 0.385-0.385 0.669-0.831 0.851-1.338 0.142-0.426 0.223-0.922 0.243-1.49 0.041-0.588 0.061-1.541 0.061-2.858s-0.010-2.26-0.030-2.828zM20.888 20.662c-0.243 0.608-0.679 1.044-1.307 1.307-0.324 0.122-0.872 0.203-1.642 0.243-0.426 0.020-1.054 0.030-1.885 0.030h-0.973c-0.811 0-1.439-0.010-1.885-0.030-0.75-0.041-1.297-0.122-1.642-0.243-0.608-0.243-1.044-0.679-1.307-1.307-0.122-0.345-0.203-0.892-0.243-1.642-0.020-0.446-0.030-1.074-0.030-1.885v-0.973c0-0.811 0.010-1.439 0.030-1.885 0.041-0.77 0.122-1.318 0.243-1.642 0.243-0.628 0.679-1.064 1.307-1.307 0.345-0.122 0.892-0.203 1.642-0.243 0.446-0.020 1.074-0.030 1.885-0.030h0.973c0.811 0 1.439 0.010 1.885 0.030 0.77 0.041 1.318 0.122 1.642 0.243 0.628 0.243 1.064 0.679 1.307 1.307 0.122 0.324 0.203 0.872 0.243 1.642 0.020 0.426 0.030 1.054 0.030 1.885v0.973c0 0.811-0.010 1.439-0.030 1.885-0.041 0.75-0.122 1.297-0.243 1.642z"></path>
<path fill="none" stroke="#a9a9a9" style="stroke: var(--color1, #a9a9a9)" stroke-linejoin="miter" stroke-linecap="butt" stroke-miterlimit="4" stroke-width="0.8649" d="M16 31.135c8.359 0 15.135-6.776 15.135-15.135s-6.776-15.135-15.135-15.135c-8.359 0-15.135 6.776-15.135 15.135s6.776 15.135 15.135 15.135z"></path>
</symbol>
</defs>
</svg>
