<svg width="37" height="37" viewBox="0 0 37 37" fill="none" xmlns="http://www.w3.org/2000/svg">
<path d="M16.0664 28.25V20.1992H13.3594V17H16.0664V14.4688C16.0664 13.1328 16.4414 12.1016 17.1914 11.375C17.9414 10.625 18.9375 10.25 20.1797 10.25C21.1875 10.25 22.0078 10.2969 22.6406 10.3906V13.2383H20.9531C20.3203 13.2383 19.8867 13.3789 19.6523 13.6602C19.4648 13.8945 19.3711 14.2695 19.3711 14.7852V17H22.3594L21.9375 20.1992H19.3711V28.25H16.0664Z" fill="#A9A9A9"/>
<path fill-rule="evenodd" clip-rule="evenodd" d="M18.5 36C28.165 36 36 28.165 36 18.5C36 8.83502 28.165 1 18.5 1C8.83502 1 1 8.83502 1 18.5C1 28.165 8.83502 36 18.5 36Z" stroke="#A9A9A9"/>
</svg>
