<svg width="37" height="37" viewBox="0 0 37 37" fill="none" xmlns="http://www.w3.org/2000/svg">
<path d="M20.3203 18.2656C20.3906 18.6641 20.4258 19.0391 20.4258 19.3906C20.4258 20.6797 20.1562 21.8281 19.6172 22.8359C19.0781 23.8203 18.3164 24.5938 17.332 25.1562C16.3477 25.7188 15.2227 26 13.957 26C12.7383 26 11.6016 25.6953 10.5469 25.0859C9.51562 24.4766 8.69531 23.6562 8.08594 22.625C7.5 21.5938 7.20703 20.4688 7.20703 19.25C7.20703 18.0312 7.5 16.9062 8.08594 15.875C8.69531 14.8438 9.51562 14.0234 10.5469 13.4141C11.6016 12.8047 12.7383 12.5 13.957 12.5C15.7148 12.5 17.2148 13.0859 18.457 14.2578L16.6289 16.0156C15.9258 15.3359 15.0352 14.9961 13.957 14.9961C13.207 14.9961 12.5039 15.1836 11.8477 15.5586C11.2148 15.9336 10.7109 16.4492 10.3359 17.1055C9.96094 17.7617 9.77344 18.4766 9.77344 19.25C9.77344 20.0234 9.96094 20.7383 10.3359 21.3945C10.7109 22.0508 11.2148 22.5664 11.8477 22.9414C12.5039 23.3164 13.207 23.5039 13.957 23.5039C14.7773 23.5039 15.4922 23.3281 16.1016 22.9766C16.5938 22.6953 16.9922 22.2969 17.2969 21.7812C17.5547 21.3828 17.7188 20.9961 17.7891 20.6211H13.957V18.2656H20.3203ZM26.8242 18.5117V16.543H24.8555V18.5117H22.9219V20.4805H24.8555V22.4492H26.8242V20.4805H28.793V18.5117H26.8242Z" fill="#A9A9A9"/>
<path fill-rule="evenodd" clip-rule="evenodd" d="M18.5 36C28.165 36 36 28.165 36 18.5C36 8.83502 28.165 1 18.5 1C8.83502 1 1 8.83502 1 18.5C1 28.165 8.83502 36 18.5 36Z" stroke="#A9A9A9"/>
</svg>
