<svg width="37" height="37" viewBox="0 0 37 37" fill="none" xmlns="http://www.w3.org/2000/svg">
<path d="M25.1367 15.5938C25.1602 15.6875 25.1719 15.8398 25.1719 16.0508C25.1719 17.7383 24.7617 19.3672 23.9414 20.9375C23.0977 22.6016 21.9141 23.9258 20.3906 24.9102C18.7266 26.0117 16.8164 26.5625 14.6602 26.5625C12.5977 26.5625 10.7109 26.0117 9 24.9102C9.25781 24.9336 9.55078 24.9453 9.87891 24.9453C11.5898 24.9453 13.125 24.418 14.4844 23.3633C13.6641 23.3633 12.9375 23.1289 12.3047 22.6602C11.6953 22.168 11.2734 21.5586 11.0391 20.832C11.2734 20.8555 11.4961 20.8672 11.707 20.8672C12.0352 20.8672 12.3633 20.832 12.6914 20.7617C11.8477 20.5742 11.1445 20.1406 10.582 19.4609C10.0195 18.7812 9.73828 18.0078 9.73828 17.1406V17.0703C10.2539 17.375 10.8047 17.5391 11.3906 17.5625C10.8984 17.2109 10.5 16.7656 10.1953 16.2266C9.89062 15.6875 9.73828 15.1016 9.73828 14.4688C9.73828 13.8125 9.91406 13.1914 10.2656 12.6055C11.1797 13.7539 12.293 14.668 13.6055 15.3477C14.9414 16.0273 16.3594 16.4023 17.8594 16.4727C17.8125 16.1914 17.7891 15.9102 17.7891 15.6289C17.7891 14.9727 17.9531 14.3633 18.2812 13.8008C18.6094 13.2148 19.0547 12.7578 19.6172 12.4297C20.1797 12.1016 20.7891 11.9375 21.4453 11.9375C21.9844 11.9375 22.4766 12.043 22.9219 12.2539C23.3906 12.4648 23.8008 12.7461 24.1523 13.0977C24.9961 12.9336 25.7812 12.6406 26.5078 12.2188C26.2266 13.0859 25.6875 13.7656 24.8906 14.2578C25.5938 14.1641 26.2969 13.9648 27 13.6602C26.4844 14.4102 25.8633 15.0547 25.1367 15.5938Z" fill="#F7AF6C"/>
<path fill-rule="evenodd" clip-rule="evenodd" d="M18.5 36C28.165 36 36 28.165 36 18.5C36 8.83502 28.165 1 18.5 1C8.83502 1 1 8.83502 1 18.5C1 28.165 8.83502 36 18.5 36Z" stroke="#F7AF6C"/>
</svg>
