<svg width="37" height="37" viewBox="0 0 37 37" fill="none" xmlns="http://www.w3.org/2000/svg">
<path d="M18 15.207C17.2734 15.207 16.5938 15.3945 15.9609 15.7695C15.3516 16.1211 14.8594 16.6133 14.4844 17.2461C14.1328 17.8555 13.957 18.5234 13.957 19.25C13.957 19.9766 14.1328 20.6562 14.4844 21.2891C14.8594 21.8984 15.3516 22.3906 15.9609 22.7656C16.5938 23.1172 17.2734 23.293 18 23.293C18.7266 23.293 19.3945 23.1172 20.0039 22.7656C20.6367 22.3906 21.1289 21.8984 21.4805 21.2891C21.8555 20.6562 22.043 19.9766 22.043 19.25C22.043 18.5234 21.8555 17.8555 21.4805 17.2461C21.1289 16.6133 20.6367 16.1211 20.0039 15.7695C19.3945 15.3945 18.7266 15.207 18 15.207ZM18 21.8867C17.2734 21.8867 16.6523 21.6289 16.1367 21.1133C15.6211 20.5977 15.3633 19.9766 15.3633 19.25C15.3633 18.5234 15.6211 17.9023 16.1367 17.3867C16.6523 16.8711 17.2734 16.6133 18 16.6133C18.7266 16.6133 19.3477 16.8711 19.8633 17.3867C20.3789 17.9023 20.6367 18.5234 20.6367 19.25C20.6367 19.9766 20.3789 20.5977 19.8633 21.1133C19.3477 21.6289 18.7266 21.8867 18 21.8867ZM23.168 15.0312C23.1445 15.2891 23.0391 15.5117 22.8516 15.6992C22.6875 15.8867 22.4766 15.9805 22.2188 15.9805C21.9609 15.9805 21.7383 15.8867 21.5508 15.6992C21.3633 15.5117 21.2695 15.2891 21.2695 15.0312C21.2695 14.7734 21.3633 14.5508 21.5508 14.3633C21.7383 14.1758 21.9609 14.082 22.2188 14.082C22.4766 14.082 22.6992 14.1758 22.8867 14.3633C23.0742 14.5508 23.168 14.7734 23.168 15.0312ZM25.8398 15.9805C25.793 15.3008 25.6875 14.7148 25.5234 14.2227C25.3125 13.6367 24.9844 13.1328 24.5391 12.7109C24.1172 12.2656 23.6133 11.9375 23.0273 11.7266C22.5352 11.5625 21.9492 11.4688 21.2695 11.4453C20.6133 11.3984 19.5234 11.375 18 11.375C16.4766 11.375 15.375 11.3984 14.6953 11.4453C14.0391 11.4688 13.4648 11.5625 12.9727 11.7266C12.3867 11.9375 11.8711 12.2656 11.4258 12.7109C11.0039 13.1328 10.6875 13.6367 10.4766 14.2227C10.3125 14.7148 10.207 15.3008 10.1602 15.9805C10.1367 16.6367 10.125 17.7266 10.125 19.25C10.125 20.7734 10.1367 21.875 10.1602 22.5547C10.207 23.2109 10.3125 23.7852 10.4766 24.2773C10.6875 24.8633 11.0039 25.3789 11.4258 25.8242C11.8711 26.2461 12.3867 26.5508 12.9727 26.7383C13.4648 26.9258 14.0391 27.0312 14.6953 27.0547C15.375 27.1016 16.4766 27.125 18 27.125C19.5234 27.125 20.6133 27.1016 21.2695 27.0547C21.9492 27.0312 22.5352 26.9375 23.0273 26.7734C23.6133 26.5625 24.1172 26.2461 24.5391 25.8242C24.9844 25.3789 25.3125 24.8633 25.5234 24.2773C25.6875 23.7852 25.7812 23.2109 25.8047 22.5547C25.8516 21.875 25.875 20.7734 25.875 19.25C25.875 17.7266 25.8633 16.6367 25.8398 15.9805ZM24.1523 23.8906C23.8711 24.5938 23.3672 25.0977 22.6406 25.4023C22.2656 25.543 21.6328 25.6367 20.7422 25.6836C20.25 25.707 19.5234 25.7188 18.5625 25.7188H17.4375C16.5 25.7188 15.7734 25.707 15.2578 25.6836C14.3906 25.6367 13.7578 25.543 13.3594 25.4023C12.6562 25.1211 12.1523 24.6172 11.8477 23.8906C11.707 23.4922 11.6133 22.8594 11.5664 21.9922C11.543 21.4766 11.5312 20.75 11.5312 19.8125V18.6875C11.5312 17.75 11.543 17.0234 11.5664 16.5078C11.6133 15.6172 11.707 14.9844 11.8477 14.6094C12.1289 13.8828 12.6328 13.3789 13.3594 13.0977C13.7578 12.957 14.3906 12.8633 15.2578 12.8164C15.7734 12.793 16.5 12.7812 17.4375 12.7812H18.5625C19.5 12.7812 20.2266 12.793 20.7422 12.8164C21.6328 12.8633 22.2656 12.957 22.6406 13.0977C23.3672 13.3789 23.8711 13.8828 24.1523 14.6094C24.293 14.9844 24.3867 15.6172 24.4336 16.5078C24.457 17 24.4688 17.7266 24.4688 18.6875V19.8125C24.4688 20.75 24.457 21.4766 24.4336 21.9922C24.3867 22.8594 24.293 23.4922 24.1523 23.8906Z" fill="#A9A9A9"/>
<path fill-rule="evenodd" clip-rule="evenodd" d="M18.5 36C28.165 36 36 28.165 36 18.5C36 8.83502 28.165 1 18.5 1C8.83502 1 1 8.83502 1 18.5C1 28.165 8.83502 36 18.5 36Z" stroke="#A9A9A9"/>
</svg>
